<?xml version="1.0" encoding="utf-8"?>
<!-- Generator: Adobe Illustrator 23.0.4, SVG Export Plug-In . SVG Version: 6.00 Build 0)  -->
<svg version="1.1" id="Layer_1" xmlns="http://www.w3.org/2000/svg" xmlns:xlink="http://www.w3.org/1999/xlink" x="0px" y="0px"
	 viewBox="0 0 956 194" style="enable-background:new 0 0 956 194;" xml:space="preserve">
<style type="text/css">
	.st0{fill:#E00000;}
	.st1{fill:#820000;}
	.st2{fill:#EE3A25;}
</style>
<polygon class="st0" points="6,50.3 45.9,4.6 104.3,4.6 64.5,50.3 "/>
<polygon class="st1" points="6,50.3 45.9,96.1 104.3,96.1 64.5,50.3 "/>
<polygon class="st2" points="6,141.8 45.9,96.1 104.3,96.1 64.5,141.8 "/>
<polygon class="st1" points="6,141.8 45.9,187.5 104.3,187.5 64.5,141.8 "/>
<polygon class="st0" points="183.8,4.6 104.3,4.6 144,50.3 "/>
<polygon class="st1" points="183.8,187.6 104.3,187.6 144,141.8 "/>
<polygon points="370.9,187.5 327.9,113.2 284.6,187.5 259.7,187.5 315.7,93.8 263.2,4.6 288.7,4.6 327.9,74.3 367.1,4.6 392.6,4.6 
	339.9,93.8 396.4,187.5 "/>
<rect x="409.8" y="4.6" width="22" height="182.9"/>
<polygon points="462.2,187.5 462.2,4.6 484.1,4.6 484.1,167.6 559.2,167.6 559.2,187.5 "/>
<rect x="577.5" y="4.6" width="22" height="182.9"/>
<polygon points="745.4,187.5 651.9,46.2 651.9,187.5 629.9,187.5 629.9,4.6 650.2,4.6 743.8,145.4 743.8,4.6 765.8,4.6 765.8,187.5 
	"/>
<polygon points="890.4,187.5 847.4,113.2 804.1,187.5 779.2,187.5 835.2,93.8 782.7,4.6 808.2,4.6 847.4,74.3 886.6,4.6 912.1,4.6 
	859.4,93.8 915.9,187.5 "/>
<g>
	<path d="M935.6,160c7.6,0,13.7,5.9,13.7,13.4c0,7.5-6.1,13.5-13.7,13.5c-7.7,0-13.8-6-13.8-13.5C921.7,165.9,927.8,160,935.6,160
		L935.6,160z M935.4,162.7c-5.8,0-10.3,4.8-10.3,10.7c0,6,4.5,10.7,10.5,10.7c5.8,0.1,10.2-4.7,10.2-10.6
		C945.8,167.5,941.4,162.7,935.4,162.7L935.4,162.7z M933.4,180.4h-3.1V167c1.2-0.2,2.9-0.4,5.2-0.4c2.5,0,3.7,0.4,4.6,1.1
		c0.8,0.6,1.4,1.5,1.4,2.9c0,1.6-1.2,2.7-2.8,3.2v0.2c1.3,0.4,2,1.4,2.4,3.2c0.4,2.1,0.7,2.8,1,3.3h-3.3c-0.4-0.5-0.6-1.6-1.1-3.3
		c-0.3-1.4-1.1-2-2.8-2h-1.5V180.4z M933.4,172.8h1.5c1.7,0,3.1-0.6,3.1-2c0-1.2-0.9-2.1-2.9-2.1c-0.8,0-1.4,0.1-1.7,0.2V172.8z"/>
</g>
</svg>
